<svg width="395" height="522" viewBox="0 0 395 522" fill="none" xmlns="http://www.w3.org/2000/svg">
<g clip-path="url(#clip0_1_2)">
<path d="M30.08 337.02C31.81 348.35 32.86 358.9 35.09 369.19C42.83 404.94 58.6 436.46 85.27 462.08C101.28 477.45 120.13 486.5 142.45 486.89C162.18 487.23 178.67 478.83 192.38 465.22C213.81 443.94 225.65 417.86 229.2 388.01C230.14 380.11 230.28 372.11 230.85 363.24C236.76 362.32 243.08 361.33 249.4 360.37C269.23 357.35 288.5 352.46 306.35 343.03C315.55 338.18 323.74 331.99 330.2 323.67C331.3 322.25 333.28 320.83 334.98 320.66C348.87 319.32 362.22 321.07 374.38 328.53C390.55 338.45 396.35 353.45 394.38 371.55C391.79 395.35 377.33 411.73 358.88 425.18C338.55 440.01 315.19 447.38 290.8 451.94C286.41 452.76 283.09 454.32 280.05 458.02C274.11 465.28 267.26 471.79 260.65 478.76C268.37 479.88 276.43 480.58 284.26 482.31C293.78 484.41 303.21 487.06 312.43 490.21C315.06 491.11 318.03 494.29 318.67 496.95C319.68 501.11 315.79 503.75 312.35 504.78C301.08 508.13 289.78 511.79 278.23 513.77C238.39 520.6 198.14 522.34 157.79 521.65C118.83 520.99 79.92 519.22 41.64 511C35.82 509.75 30.09 507.86 24.51 505.76C20.63 504.3 15.75 501.93 16.74 497.34C17.41 494.22 21.37 490.58 24.63 489.48C33.71 486.41 43.13 484.2 52.55 482.31C60.95 480.63 69.53 479.84 78.74 478.57C76.58 476.54 74.86 474.88 73.09 473.28C36.44 440.18 16.59 398.33 9.49 350.09C8.22 341.47 8.88 332.53 8.96 323.74C9.03 315.92 13.36 310.33 19.41 305.93C30.01 298.24 42.27 294.67 54.86 291.99C72.49 288.24 90.29 286.11 108.34 286.57C109.4 286.6 110.45 286.91 111.53 288.09C103.1 289.45 94.65 290.67 86.25 292.19C71.05 294.95 55.83 297.77 41.83 304.74C37.23 307.03 31.97 309.43 32 315.54C32.03 321.54 37.39 324.05 41.87 325.6C55.32 330.26 68.8 335.37 82.7 338.07C121.12 345.54 160.05 346.45 199.08 344.6C223.55 343.44 247.87 341.07 271.5 334.29C279.59 331.97 287.38 328.55 295.24 325.44C297.04 324.73 298.64 323.34 300.14 322.04C305.81 317.13 306.01 311.62 299.36 308.45C289.71 303.86 279.57 299.8 269.2 297.33C239.4 290.23 209.02 286.71 178.44 284.98C177.22 284.91 176.01 284.68 174.8 284.53C174.8 284.08 174.8 283.62 174.8 283.17C180.82 282.84 186.84 282.25 192.86 282.23C226.57 282.13 260.04 284.6 292.7 293.48C300.3 295.55 307.81 298.74 314.65 302.65C325.92 309.09 326.38 318.12 316.57 326.8C307.31 334.99 296.22 340 284.67 343.89C261.56 351.67 237.7 356.25 213.45 357.92C191.22 359.45 168.86 360.33 146.59 359.9C113.92 359.27 81.58 355.28 50.32 345.05C43.9 342.95 37.74 340.07 30.07 336.99L30.08 337.02ZM300.03 429.12C301.2 429.12 302.52 429.37 303.73 429.08C319.23 425.41 333.86 419.64 346.51 409.77C358.23 400.63 367.92 389.86 371.61 374.86C375.74 358.08 367.6 344.42 351.99 342.54C344.71 341.66 337.9 343.69 331.33 346.95C326.89 349.15 325.04 352.36 323.96 357.19C320.79 371.38 317.53 385.62 313.06 399.43C309.77 409.58 304.51 419.1 300.04 429.11L300.03 429.12Z" fill="#2D5D47"/>
<path d="M182.04 0C235.82 0.43 285.14 15.17 329.51 45.51C340.18 52.8 349.94 61.48 359.71 70C365.95 75.44 366.26 81.3 361.74 86.06C357.03 91.01 350.39 90.84 344.47 85.44C310.28 54.27 270.53 34.11 224.8 26.89C157.67 16.28 95.38 28.49 39.74 68.87C32.5 74.13 26.13 80.59 19.35 86.48C14.53 90.68 7.75 90.83 3.5 86.85C-0.859997 82.76 -1.43 76.36 3.44 71.78C12.38 63.36 21.46 54.94 31.39 47.77C67.18 21.93 107.49 7.35 151.16 1.97C161.38 0.71 171.74 0.62 182.04 0Z" fill="#2D5D47"/>
<path d="M182.11 54.77C229.8 55.49 273.43 71.14 310.74 103.6C311.62 104.36 312.51 105.12 313.3 105.98C317.27 110.32 317.55 116.19 314.02 119.96C310.29 123.94 304.45 123.87 299.58 120.4C288.22 112.33 277.29 103.39 265.11 96.76C200.02 61.3 125.06 71.16 70.43 117.22C67.06 120.06 64.17 123.79 58.98 123.48C54.77 123.22 51.03 122.27 49.1 118.05C47.14 113.78 47.79 109.57 51.26 106.66C59.65 99.62 67.92 92.28 77.08 86.35C108.48 66 142.97 55.18 182.11 54.79V54.77Z" fill="#2D5D47"/>
<path d="M220.24 104.53C234.39 111.24 243.48 121.66 249.76 134.66C265.95 168.18 253.62 207.99 220.54 228.24C210.36 234.47 199.5 239.6 189.02 245.34C176.85 252 165.76 260.07 160.58 273.53C153.78 291.2 156.73 307.44 169.52 321.67C170.17 322.4 170.86 323.1 171.24 324.07C157.93 317.27 148.07 307.41 144.24 292.52C138.98 272.07 145.49 254.54 159.51 240C167.16 232.07 176.43 225.51 185.65 219.36C199.15 210.36 212.39 201.29 221.91 187.79C239.05 163.49 240.06 130.68 221.46 106.9C221.1 106.44 220.91 105.85 220.24 104.52V104.53Z" fill="#2D5D47"/>
<path d="M180.66 94.18C199.18 100.01 211.59 111.82 215.83 130.65C220.85 152.95 213.43 172.07 197.08 187.03C185.85 197.3 172.63 205.36 160.58 214.76C153.52 220.27 146.47 225.98 140.34 232.47C122.26 251.59 120.42 280.69 135.35 302.32C135.89 303.1 136.43 303.89 136.18 305.52C133.25 302.83 130.03 300.4 127.45 297.41C105.11 271.61 105.13 236.84 128.51 211.88C139.38 200.27 151.98 190.25 163.99 179.73C172.96 171.87 180.92 163.22 186.61 152.7C196.05 135.26 195.35 118.01 185.13 101.09C183.71 98.75 182.16 96.49 180.67 94.19L180.66 94.18Z" fill="#2D5D47"/>
<path d="M180.88 120.72C180.78 124.78 177.44 128.39 172.54 129.35C167.18 130.4 161.72 130.98 156.39 132.15C143.66 134.96 132.49 140.75 122.86 149.69C120.61 151.78 117.24 153.52 114.24 153.77C110.36 154.09 106.9 151.93 105.25 147.91C103.65 144.03 104.63 140.32 107.56 137.92C114.07 132.58 120.6 127.06 127.87 122.92C141.01 115.44 155.38 111.46 170.66 111.6C176.94 111.65 181.02 115.41 180.88 120.72Z" fill="#2D5D47"/>
</g>
<defs>
<clipPath id="clip0_1_2">
<rect width="394.76" height="521.8" fill="white"/>
</clipPath>
</defs>
</svg>
